<mxfile host="app.diagrams.net" modified="2024-01-31T10:19:45.263Z" agent="Mozilla/5.0 (Windows NT 10.0; Win64; x64) AppleWebKit/537.36 (KHTML, like Gecko) Chrome/120.0.0.0 Safari/537.36 Edg/120.0.0.0" etag="l3wn8phje40RoTbpngzc" version="23.0.2" type="github">
  <diagram name="Page-1" id="Y6XrjZkaMjrL60eVFpBh">
    <mxGraphModel dx="1754" dy="865" grid="1" gridSize="10" guides="1" tooltips="1" connect="1" arrows="1" fold="1" page="1" pageScale="1" pageWidth="850" pageHeight="1100" math="0" shadow="0">
      <root>
        <mxCell id="0" />
        <mxCell id="1" parent="0" />
        <mxCell id="nCnfiWr_i8K848HqZHnu-13" value="" style="edgeStyle=orthogonalEdgeStyle;rounded=0;orthogonalLoop=1;jettySize=auto;html=1;" edge="1" parent="1" source="nCnfiWr_i8K848HqZHnu-1" target="nCnfiWr_i8K848HqZHnu-5">
          <mxGeometry relative="1" as="geometry" />
        </mxCell>
        <mxCell id="nCnfiWr_i8K848HqZHnu-1" value="" style="rounded=1;whiteSpace=wrap;html=1;" vertex="1" parent="1">
          <mxGeometry x="260" y="240" width="180" height="260" as="geometry" />
        </mxCell>
        <mxCell id="nCnfiWr_i8K848HqZHnu-2" value="SDMS Datastore" style="shape=cylinder3;whiteSpace=wrap;html=1;boundedLbl=1;backgroundOutline=1;size=15;" vertex="1" parent="1">
          <mxGeometry x="320" y="300" width="60" height="80" as="geometry" />
        </mxCell>
        <mxCell id="nCnfiWr_i8K848HqZHnu-3" value="Web GUI" style="rounded=1;whiteSpace=wrap;html=1;" vertex="1" parent="1">
          <mxGeometry x="290" y="420" width="120" height="60" as="geometry" />
        </mxCell>
        <mxCell id="nCnfiWr_i8K848HqZHnu-4" value="SDMS ETL" style="rounded=1;whiteSpace=wrap;html=1;" vertex="1" parent="1">
          <mxGeometry x="330" y="260" width="95" height="30" as="geometry" />
        </mxCell>
        <mxCell id="nCnfiWr_i8K848HqZHnu-9" style="edgeStyle=orthogonalEdgeStyle;rounded=0;orthogonalLoop=1;jettySize=auto;html=1;exitX=1;exitY=0.5;exitDx=0;exitDy=0;entryX=0;entryY=0.75;entryDx=0;entryDy=0;" edge="1" parent="1" source="nCnfiWr_i8K848HqZHnu-5" target="nCnfiWr_i8K848HqZHnu-6">
          <mxGeometry relative="1" as="geometry" />
        </mxCell>
        <mxCell id="nCnfiWr_i8K848HqZHnu-5" value="GACDW ETL" style="rounded=1;whiteSpace=wrap;html=1;" vertex="1" parent="1">
          <mxGeometry x="480" y="320" width="120" height="60" as="geometry" />
        </mxCell>
        <mxCell id="nCnfiWr_i8K848HqZHnu-6" value="" style="rounded=1;whiteSpace=wrap;html=1;" vertex="1" parent="1">
          <mxGeometry x="710" y="160" width="120" height="250" as="geometry" />
        </mxCell>
        <mxCell id="nCnfiWr_i8K848HqZHnu-7" value="GACDW&lt;br&gt;Datastore" style="shape=cylinder3;whiteSpace=wrap;html=1;boundedLbl=1;backgroundOutline=1;size=15;" vertex="1" parent="1">
          <mxGeometry x="740" y="280" width="60" height="90" as="geometry" />
        </mxCell>
        <mxCell id="nCnfiWr_i8K848HqZHnu-8" value="GACDW" style="text;html=1;strokeColor=none;fillColor=none;align=center;verticalAlign=middle;whiteSpace=wrap;rounded=0;" vertex="1" parent="1">
          <mxGeometry x="740" y="200" width="60" height="30" as="geometry" />
        </mxCell>
      </root>
    </mxGraphModel>
  </diagram>
</mxfile>
